<?xml version="1.0" encoding="UTF-8" standalone="no"?>
<!-- Created with Inkscape (http://www.inkscape.org/) -->

<svg
   xmlns:dc="http://purl.org/dc/elements/1.1/"
   xmlns:cc="http://creativecommons.org/ns#"
   xmlns:rdf="http://www.w3.org/1999/02/22-rdf-syntax-ns#"
   xmlns:svg="http://www.w3.org/2000/svg"
   xmlns="http://www.w3.org/2000/svg"
   xmlns:sodipodi="http://sodipodi.sourceforge.net/DTD/sodipodi-0.dtd"
   xmlns:inkscape="http://www.inkscape.org/namespaces/inkscape"
   version="1.0"
   width="230"
   height="160"
   id="svg2"
   inkscape:version="0.47 r22583"
   sodipodi:docname="Kerning.svg">
  <metadata
     id="metadata20">
    <rdf:RDF>
      <cc:Work
         rdf:about="">
        <dc:format>image/svg+xml</dc:format>
        <dc:type
           rdf:resource="http://purl.org/dc/dcmitype/StillImage" />
      </cc:Work>
    </rdf:RDF>
  </metadata>
  <sodipodi:namedview
     pagecolor="#ffffff"
     bordercolor="#666666"
     borderopacity="1"
     objecttolerance="10"
     gridtolerance="10"
     guidetolerance="10"
     inkscape:pageopacity="0"
     inkscape:pageshadow="2"
     inkscape:window-width="640"
     inkscape:window-height="504"
     id="namedview18"
     showgrid="false"
     inkscape:zoom="1.475"
     inkscape:cx="115"
     inkscape:cy="80"
     inkscape:window-x="0"
     inkscape:window-y="24"
     inkscape:window-maximized="0"
     inkscape:current-layer="svg2" />
  <defs
     id="defs4">
    <inkscape:perspective
       sodipodi:type="inkscape:persp3d"
       inkscape:vp_x="0 : 80 : 1"
       inkscape:vp_y="0 : 1000 : 0"
       inkscape:vp_z="230 : 80 : 1"
       inkscape:persp3d-origin="115 : 53.333333 : 1"
       id="perspective22" />
  </defs>
  <path
     d="M 50.314909,119.70724 L 33.908659,119.70724 L 31.033659,126.39474 C 30.325316,128.04058 29.97115,129.26974 29.971159,130.08224 C 29.97115,130.72807 30.273233,131.30099 30.877409,131.80099 C 31.502399,132.28016 32.835731,132.59266 34.877409,132.73849 L 34.877409,133.89474 L 21.533659,133.89474 L 21.533659,132.73849 C 23.30449,132.42599 24.450322,132.01974 24.971159,131.51974 C 26.033654,130.51974 27.210736,128.48849 28.502409,125.42599 L 43.408659,90.550987 L 44.502409,90.550987 L 59.252409,125.80099 C 60.43987,128.63433 61.512785,130.47807 62.471159,131.33224 C 63.450283,132.16557 64.804449,132.63432 66.533659,132.73849 L 66.533659,133.89474 L 49.814909,133.89474 L 49.814909,132.73849 C 51.502379,132.65515 52.637794,132.3739 53.221159,131.89474 C 53.825293,131.41557 54.127376,130.83224 54.127409,130.14474 C 54.127376,129.22807 53.71071,127.78016 52.877409,125.80099 L 50.314909,119.70724 M 49.439909,117.39474 L 42.252409,100.26974 L 34.877409,117.39474 L 49.439909,117.39474 M 104.47116,91.519737 L 104.47116,92.675987 C 102.97112,92.946862 101.8357,93.426028 101.06491,94.113487 C 99.960701,95.134359 98.981536,96.696858 98.127409,98.800987 L 83.346159,134.86349 L 82.189909,134.86349 L 66.314909,98.332237 C 65.502403,96.457275 64.929486,95.311442 64.596159,94.894737 C 64.075321,94.248944 63.429488,93.748944 62.658659,93.394737 C 61.908656,93.019778 60.887824,92.780195 59.596159,92.675987 L 59.596159,91.519737 L 76.908659,91.519737 L 76.908659,92.675987 C 74.95031,92.863528 73.679478,93.196861 73.096159,93.675987 C 72.512812,94.155194 72.221146,94.769776 72.221159,95.519737 C 72.221146,96.561441 72.700312,98.18644 73.658659,100.39474 L 84.439909,125.23849 L 94.439909,100.70724 C 95.419039,98.290606 95.908622,96.613525 95.908659,95.675987 C 95.908622,95.071859 95.606539,94.498943 95.002409,93.957237 C 94.398207,93.394778 93.377375,92.998945 91.939909,92.769737 C 91.83571,92.748945 91.658626,92.717695 91.408659,92.675987 L 91.408659,91.519737 L 104.47116,91.519737 M 194.93991,91.519737 L 194.93991,92.675987 C 193.83568,92.676028 192.93985,92.873945 192.25241,93.269737 C 191.56485,93.665611 190.9086,94.405193 190.28366,95.488487 C 189.86694,96.217692 189.21069,97.957273 188.31491,100.70724 L 176.50241,134.86349 L 175.25241,134.86349 L 165.59616,107.76974 L 156.00241,134.86349 L 154.87741,134.86349 L 142.28366,99.675987 C 141.34615,97.051024 140.7524,95.498942 140.50241,95.019737 C 140.08574,94.22811 139.51282,93.644777 138.78366,93.269737 C 138.07532,92.873945 137.10657,92.676028 135.87741,92.675987 L 135.87741,91.519737 L 151.56491,91.519737 L 151.56491,92.675987 L 150.81491,92.675987 C 149.71073,92.676028 148.86698,92.926028 148.28366,93.425987 C 147.70031,93.926027 147.40865,94.530193 147.40866,95.238487 C 147.40865,95.967692 147.86698,97.644773 148.78366,100.26974 L 157.12741,124.05099 L 164.15866,103.83224 L 162.90866,100.26974 L 161.90866,97.425987 C 161.47113,96.384358 160.98155,95.467692 160.43991,94.675987 C 160.16905,94.280194 159.83572,93.946861 159.43991,93.675987 C 158.91905,93.301028 158.39822,93.030195 157.87741,92.863487 C 157.48155,92.738528 156.85655,92.676028 156.00241,92.675987 L 156.00241,91.519737 L 172.50241,91.519737 L 172.50241,92.675987 L 171.37741,92.675987 C 170.21071,92.676028 169.35654,92.926028 168.81491,93.425987 C 168.27321,93.926027 168.00238,94.60311 168.00241,95.457237 C 168.00238,96.519775 168.47113,98.373939 169.40866,101.01974 L 177.53366,124.05099 L 185.59616,100.70724 C 186.51277,98.12394 186.97111,96.332275 186.97116,95.332237 C 186.97111,94.85311 186.81486,94.405193 186.50241,93.988487 C 186.21069,93.571861 185.83569,93.280195 185.37741,93.113487 C 184.58569,92.821862 183.55444,92.676028 182.28366,92.675987 L 182.28366,91.519737 L 194.93991,91.519737 M 208.37741,129.76974 C 205.43989,132.04057 203.59615,133.35307 202.84616,133.70724 C 201.72115,134.22807 200.52323,134.48849 199.25241,134.48849 C 197.27324,134.48849 195.63782,133.8114 194.34616,132.45724 C 193.07532,131.10307 192.43991,129.32183 192.43991,127.11349 C 192.43991,125.71766 192.75241,124.50933 193.37741,123.48849 C 194.23157,122.07183 195.71074,120.7385 197.81491,119.48849 C 199.9399,118.2385 203.46073,116.71767 208.37741,114.92599 L 208.37741,113.80099 C 208.37739,110.94684 207.91906,108.98851 207.00241,107.92599 C 206.10656,106.86351 204.79406,106.33227 203.06491,106.33224 C 201.7524,106.33227 200.71073,106.68643 199.93991,107.39474 C 199.14823,108.1031 198.7524,108.9156 198.75241,109.83224 L 198.81491,111.64474 C 198.8149,112.60309 198.5649,113.34267 198.06491,113.86349 C 197.58573,114.38434 196.95032,114.64476 196.15866,114.64474 C 195.38782,114.64476 194.7524,114.37392 194.25241,113.83224 C 193.77324,113.29059 193.53366,112.55101 193.53366,111.61349 C 193.53366,109.82184 194.45032,108.17601 196.28366,106.67599 C 198.11698,105.17602 200.6899,104.42602 204.00241,104.42599 C 206.54406,104.42602 208.62739,104.8531 210.25241,105.70724 C 211.48155,106.3531 212.3878,107.36351 212.97116,108.73849 C 213.34614,109.63434 213.53364,111.46768 213.53366,114.23849 L 213.53366,123.95724 C 213.53364,126.68641 213.58572,128.36349 213.68991,128.98849 C 213.79405,129.59266 213.96072,129.99891 214.18991,130.20724 C 214.43988,130.41557 214.72113,130.51974 215.03366,130.51974 C 215.36697,130.51974 215.65863,130.44682 215.90866,130.30099 C 216.34613,130.03016 217.18988,129.26974 218.43991,128.01974 L 218.43991,129.76974 C 216.10655,132.89474 213.87739,134.45724 211.75241,134.45724 C 210.73156,134.45724 209.91906,134.10307 209.31491,133.39474 C 208.71072,132.6864 208.39822,131.47807 208.37741,129.76974 M 208.37741,127.73849 L 208.37741,116.83224 C 205.23156,118.08225 203.20031,118.96767 202.28366,119.48849 C 200.63782,120.40517 199.46073,121.3635 198.75241,122.36349 C 198.04407,123.3635 197.6899,124.45725 197.68991,125.64474 C 197.6899,127.14474 198.13782,128.39474 199.03366,129.39474 C 199.92948,130.37391 200.96073,130.86349 202.12741,130.86349 C 203.71073,130.86349 205.79406,129.82183 208.37741,127.73849"
     id="text2411"
     style="font-size:64px;font-style:normal;font-variant:normal;font-weight:normal;font-stretch:normal;text-align:start;line-height:125%;writing-mode:lr-tb;text-anchor:start;fill:#000000;fill-opacity:1;stroke:none;stroke-width:1px;stroke-linecap:butt;stroke-linejoin:miter;stroke-opacity:1;font-family:Times New Roman;-inkscape-font-specification:Times New Roman" />
  <path
     d="M 50.314909,43.70724 L 33.908659,43.70724 L 31.033659,50.39474 C 30.325316,52.04058 29.97115,53.26975 29.971159,54.08224 C 29.97115,54.72808 30.273233,55.301 30.877409,55.80099 C 31.502399,56.28016 32.835731,56.59266 34.877409,56.73849 L 34.877409,57.89474 L 21.533659,57.89474 L 21.533659,56.73849 C 23.30449,56.426 24.450322,56.01975 24.971159,55.51974 C 26.033654,54.51975 27.210736,52.4885 28.502409,49.42599 L 43.408659,14.550995 L 44.502409,14.550995 L 59.252409,49.80099 C 60.43987,52.63433 61.512785,54.47808 62.471159,55.33224 C 63.450283,56.16558 64.804449,56.63433 66.533659,56.73849 L 66.533659,57.89474 L 49.814909,57.89474 L 49.814909,56.73849 C 51.502379,56.65516 52.637794,56.37391 53.221159,55.89474 C 53.825293,55.41558 54.127376,54.83225 54.127409,54.14474 C 54.127376,53.22808 53.71071,51.78017 52.877409,49.80099 L 50.314909,43.70724 M 49.439909,41.39474 L 42.252409,24.26974 L 34.877409,41.39474 L 49.439909,41.39474"
     id="text2415"
     style="font-size:64px;font-style:normal;font-variant:normal;font-weight:normal;font-stretch:normal;text-align:start;line-height:125%;writing-mode:lr-tb;text-anchor:start;fill:#000000;fill-opacity:1;stroke:none;stroke-width:1px;stroke-linecap:butt;stroke-linejoin:miter;stroke-opacity:1;font-family:Times New Roman;-inkscape-font-specification:Times New Roman" />
  <path
     d="M 111.46956,15.519745 L 111.46956,16.675995 C 109.96951,16.946869 108.8341,17.426035 108.06331,18.113495 C 106.9591,19.134367 105.97994,20.696865 105.12581,22.800995 L 90.344559,58.86349 L 89.188309,58.86349 L 73.313309,22.332245 C 72.500802,20.457282 71.927886,19.31145 71.594559,18.894745 C 71.07372,18.248951 70.427888,17.748952 69.657059,17.394745 C 68.907056,17.019786 67.886224,16.780203 66.594559,16.675995 L 66.594559,15.519745 L 83.907059,15.519745 L 83.907059,16.675995 C 81.948709,16.863536 80.677877,17.196869 80.094559,17.675995 C 79.511212,18.155201 79.219546,18.769784 79.219559,19.519745 C 79.219546,20.561449 79.698712,22.186447 80.657059,24.39474 L 91.438309,49.23849 L 101.43831,24.70724 C 102.41744,22.290614 102.90702,20.613532 102.90706,19.675995 C 102.90702,19.071867 102.60494,18.498951 102.00081,17.957245 C 101.39661,17.394785 100.37577,16.998952 98.938309,16.769745 C 98.834109,16.748953 98.657026,16.717703 98.407059,16.675995 L 98.407059,15.519745 L 111.46956,15.519745"
     id="text2419"
     style="font-size:64px;font-style:normal;font-variant:normal;font-weight:normal;font-stretch:normal;text-align:start;line-height:125%;writing-mode:lr-tb;text-anchor:start;fill:#000000;fill-opacity:1;stroke:none;stroke-width:1px;stroke-linecap:butt;stroke-linejoin:miter;stroke-opacity:1;font-family:Times New Roman;-inkscape-font-specification:Times New Roman" />
  <path
     d="M 194.99397,15.51973 L 194.99397,16.67598 C 193.88975,16.676021 192.99391,16.873937 192.30647,17.26973 C 191.61892,17.665603 190.96267,18.405186 190.33772,19.48848 C 189.921,20.217684 189.26475,21.957266 188.36897,24.70723 L 176.55647,58.86348 L 175.30647,58.86348 L 165.65022,31.76973 L 156.05647,58.86348 L 154.93147,58.86348 L 142.33772,23.67598 C 141.40022,21.051016 140.80647,19.498935 140.55647,19.01973 C 140.1398,18.228103 139.56688,17.64477 138.83772,17.26973 C 138.12939,16.873937 137.16064,16.676021 135.93147,16.67598 L 135.93147,15.51973 L 151.61897,15.51973 L 151.61897,16.67598 L 150.86897,16.67598 C 149.76479,16.676021 148.92104,16.926021 148.33772,17.42598 C 147.75438,17.92602 147.46271,18.530186 147.46272,19.23848 C 147.46271,19.967684 147.92104,21.644766 148.83772,24.26973 L 157.18147,48.05098 L 164.21272,27.83223 L 162.96272,24.26973 L 161.96272,21.42598 C 161.5252,20.38435 161.03561,19.467685 160.49397,18.67598 C 160.22311,18.280186 159.88978,17.946853 159.49397,17.67598 C 158.97312,17.30102 158.45228,17.030187 157.93147,16.86348 C 157.53562,16.738521 156.91062,16.676021 156.05647,16.67598 L 156.05647,15.51973 L 172.55647,15.51973 L 172.55647,16.67598 L 171.43147,16.67598 C 170.26477,16.676021 169.41061,16.926021 168.86897,17.42598 C 168.32727,17.92602 168.05644,18.603102 168.05647,19.45723 C 168.05644,20.519767 168.52519,22.373932 169.46272,25.01973 L 177.58772,48.05098 L 185.65022,24.70723 C 186.56684,22.123932 187.02517,20.332267 187.02522,19.33223 C 187.02517,18.853102 186.86892,18.405186 186.55647,17.98848 C 186.26475,17.571853 185.88976,17.280187 185.43147,17.11348 C 184.63976,16.821854 183.60851,16.676021 182.33772,16.67598 L 182.33772,15.51973 L 194.99397,15.51973"
     id="text2423"
     style="font-size:64px;font-style:normal;font-variant:normal;font-weight:normal;font-stretch:normal;text-align:start;line-height:125%;writing-mode:lr-tb;text-anchor:start;fill:#000000;fill-opacity:1;stroke:none;stroke-width:1px;stroke-linecap:butt;stroke-linejoin:miter;stroke-opacity:1;font-family:Times New Roman;-inkscape-font-specification:Times New Roman" />
  <path
     d="M 211.42612,53.76309 C 208.4886,56.03393 206.64485,57.34643 205.89487,57.70059 C 204.76986,58.22143 203.57194,58.48184 202.30112,58.48184 C 200.32194,58.48184 198.68653,57.80476 197.39487,56.45059 C 196.12403,55.09643 195.48861,53.31518 195.48862,51.10684 C 195.48861,49.71102 195.80111,48.50268 196.42612,47.48184 C 197.28028,46.06519 198.75944,44.73186 200.86362,43.48184 C 202.98861,42.23186 206.50944,40.71103 211.42612,38.91934 L 211.42612,37.79434 C 211.4261,34.9402 210.96777,32.98187 210.05112,31.91934 C 209.15527,30.85687 207.84277,30.32562 206.11362,30.32559 C 204.80111,30.32562 203.75944,30.67979 202.98862,31.38809 C 202.19694,32.09645 201.80111,32.90895 201.80112,33.82559 L 201.86362,35.63809 C 201.86361,36.59645 201.61361,37.33603 201.11362,37.85684 C 200.63444,38.37769 199.99903,38.63811 199.20737,38.63809 C 198.43653,38.63811 197.80111,38.36728 197.30112,37.82559 C 196.82195,37.28395 196.58236,36.54436 196.58237,35.60684 C 196.58236,33.8152 197.49903,32.16937 199.33237,30.66934 C 201.16569,29.16937 203.73861,28.41937 207.05112,28.41934 C 209.59277,28.41937 211.6761,28.84645 213.30112,29.70059 C 214.53026,30.34645 215.43651,31.35687 216.01987,32.73184 C 216.39484,33.6277 216.58234,35.46103 216.58237,38.23184 L 216.58237,47.95059 C 216.58234,50.67977 216.63443,52.35685 216.73862,52.98184 C 216.84276,53.58601 217.00943,53.99226 217.23862,54.20059 C 217.48859,54.40893 217.76984,54.5131 218.08237,54.51309 C 218.41568,54.5131 218.70734,54.44018 218.95737,54.29434 C 219.39484,54.02351 220.23859,53.2631 221.48862,52.01309 L 221.48862,53.76309 C 219.15526,56.88809 216.92609,58.45059 214.80112,58.45059 C 213.78026,58.45059 212.96776,58.09643 212.36362,57.38809 C 211.75943,56.67976 211.44693,55.47143 211.42612,53.76309 M 211.42612,51.73184 L 211.42612,40.82559 C 208.28027,42.07561 206.24902,42.96102 205.33237,43.48184 C 203.68652,44.39852 202.50944,45.35685 201.80112,46.35684 C 201.09278,47.35685 200.73861,48.4506 200.73862,49.63809 C 200.73861,51.1381 201.18653,52.3881 202.08237,53.38809 C 202.97819,54.36726 204.00944,54.85685 205.17612,54.85684 C 206.75944,54.85685 208.84277,53.81518 211.42612,51.73184"
     id="text2427"
     style="font-size:64px;font-style:normal;font-variant:normal;font-weight:normal;font-stretch:normal;text-align:start;line-height:125%;writing-mode:lr-tb;text-anchor:start;fill:#000000;fill-opacity:1;stroke:none;stroke-width:1px;stroke-linecap:butt;stroke-linejoin:miter;stroke-opacity:1;font-family:Times New Roman;-inkscape-font-specification:Times New Roman" />
  <path
     d="M 59.679973,91.498646 L 59.679973,133.93123"
     id="path3205"
     style="fill:none;fill-opacity:1;fill-rule:nonzero;stroke:#0097ff;stroke-width:0.5;stroke-miterlimit:4;stroke-dasharray:none;stroke-dashoffset:0;stroke-opacity:1" />
  <path
     d="M 66.499904,91.498646 L 66.499904,133.93123"
     id="path3207"
     style="fill:none;fill-opacity:1;fill-rule:nonzero;stroke:#0097ff;stroke-width:0.5;stroke-miterlimit:4;stroke-dasharray:none;stroke-dashoffset:0;stroke-opacity:1" />
  <path
     d="M 195.02582,91.536755 L 195.02582,133.96934"
     id="path3211"
     style="fill:none;fill-opacity:1;fill-rule:nonzero;stroke:#0097ff;stroke-width:0.5;stroke-miterlimit:4;stroke-dasharray:none;stroke-dashoffset:0;stroke-opacity:1" />
  <path
     d="M 66.577837,15.399665 L 66.577837,57.83224"
     id="path3213"
     style="fill:none;fill-opacity:1;fill-rule:nonzero;stroke:#0097ff;stroke-width:0.5;stroke-miterlimit:4;stroke-dasharray:none;stroke-dashoffset:0;stroke-opacity:1" />
  <path
     d="M 194.9496,15.527605 L 194.9496,57.96019"
     id="path3219"
     style="fill:none;fill-opacity:1;fill-rule:nonzero;stroke:#0097ff;stroke-width:0.5;stroke-miterlimit:4;stroke-dasharray:none;stroke-dashoffset:0;stroke-opacity:1" />
  <text
     x="19.340918"
     y="71.207413"
     id="text3247"
     xml:space="preserve"
     style="font-size:10.99967003px;font-style:normal;font-variant:normal;font-weight:normal;font-stretch:normal;text-align:start;line-height:125%;writing-mode:lr-tb;text-anchor:start;fill:#000080;fill-opacity:1;stroke:none;font-family:Sans;-inkscape-font-specification:Sans"
     sodipodi:linespacing="125%"><tspan
       x="19.340918"
       y="71.207413"
       id="tspan3249">No kerning</tspan></text>
  <text
     x="20.337742"
     y="146.06546"
     id="text3251"
     xml:space="preserve"
     style="font-size:11.15084743px;font-style:normal;font-variant:normal;font-weight:normal;font-stretch:normal;text-align:start;line-height:125%;writing-mode:lr-tb;text-anchor:start;fill:#000080;fill-opacity:1;stroke:none;font-family:Sans;-inkscape-font-specification:Sans"
     sodipodi:linespacing="125%"><tspan
       x="20.337742"
       y="146.06546"
       id="tspan3253">Kerning applied</tspan></text>
</svg>
